<svg xmlns="http://www.w3.org/2000/svg" version="1.1" xmlns:xlink="http://www.w3.org/1999/xlink" xmlns:svgjs="http://svgjs.dev/svgjs" width="100%" height="100%" viewBox="0 0 1000 600"><rect width="1000" height="600" x="0" y="0" fill="#8bd8bd"/><g><rect width="333.3333333333333" height="333.3333333333333" rx="13.333333333333334" ry="13.333333333333334" y="212.84533729262154" fill="#243665" transform="matrix(0.6557441436626128,0,0,0.6557441436626128,0,51.13721928346007)" x="190.62307739257812"/><path d="M307.34325533699405 319.89137458847114L307.34325533699405 454.51199316016834L289.7751624733128 454.51199316016834L289.7751624733128 319.89137458847114L242.58644792086656 319.89137458847114L242.58644792086656 304.5119976131222L354.32768973986265 304.5119976131222L354.32768973986265 319.89137458847114L307.34325533699405 319.89137458847114ZM377.0027863429861 304.5119976131222L416.19539218339133 304.5119976131222Q445.23235630193426 304.5119976131222 458.5981146600175 315.8641373539395Q471.9930558966116 327.1870942162457 471.9930558966116 348.315498258281L471.9930558966116 348.315498258281Q471.9930558966116 357.85829953141024 468.87048789592416 366.4380658136732Q465.7479198952366 374.988649217425 458.773211931084 381.5256140039111Q451.79850396693143 388.03339591188603 440.44636422611416 391.76880436130665Q429.123407363808 395.5333956892383 412.6934467620596 395.5333956892383L412.6934467620596 395.5333956892383L394.4249648141119 395.5333956892383L394.4249648141119 454.51199316016834L377.0027863429861 454.51199316016834L377.0027863429861 304.5119976131222ZM414.53196810825875 319.3952656537825L414.53196810825875 319.3952656537825L394.4249648141119 319.3952656537825L394.4249648141119 380.53339613453375L410.7381939018159 380.53339613453375Q425.12535300778745 380.53339613453375 434.6973371594278 377.4691938908684Q444.29850418957915 374.37580876869197 449.1136791439104 367.4594665615616Q453.9288540982417 360.54312435443126 453.9288540982417 349.0450702210585L453.9288540982417 349.0450702210585Q453.9288540982417 334.074253544865 444.4152357036236 326.72016816006817Q434.8724344304943 319.3952656537825 414.53196810825875 319.3952656537825Z " fill="#8bd8bd" transform="matrix(0.6557441436626128,0,0,0.6557441436626128,0,51.13721928346007)"/><path d="M653.4996617125246 322.35872939505833L653.4996617125246 418.4228709647626L640.9632183513796 418.4228709647626L640.9632183513796 322.35872939505833L607.2897483929553 322.35872939505833L607.2897483929553 311.3841352898699L687.0273590737264 311.3841352898699L687.0273590737264 322.35872939505833L653.4996617125246 322.35872939505833ZM732.2585135262298 336.7277425498591L732.2585135262298 336.7277425498591Q742.5250693020512 336.7277425498591 749.8345238199281 341.2675177205063Q757.1648029945511 345.7864682344074 761.0381891493234 353.9497336788739Q764.9115753040958 362.11299912334044 764.9115753040958 373.0251192582906L764.9115753040958 373.0251192582906L764.9115753040958 380.56364500037444L709.4971637027554 380.56364500037444Q709.7262349269624 394.70358693096824 716.5358976829332 402.0963400758295Q723.3455604389039 409.4890932206908 735.7154065460804 409.4890932206908L735.7154065460804 409.4890932206908Q743.3164062584026 409.4890932206908 749.1889594607994 408.0938412187029Q755.0406880064502 406.698589216715 761.3297343437687 403.99138383972354L761.3297343437687 403.99138383972354L761.3297343437687 414.6952574072128Q755.2489345739109 417.40246278420426 749.2930827445298 418.65194218896954Q743.3164062584026 419.88059693698875 735.1947901274282 419.88059693698875L735.1947901274282 419.88059693698875Q723.6371056333492 419.88059693698875 715.0365223972149 415.1742245123728Q706.4151145043345 410.44702743101084 701.6670927662263 401.2841784627321Q696.8982463713721 392.1421541511994 696.8982463713721 378.89767246068743L696.8982463713721 378.89767246068743Q696.8982463713721 365.92391130787456 701.2714242880506 356.44869248840445Q705.6237775479831 346.9734736689344 713.5579717682426 341.8506081093967Q721.5129906452482 336.7277425498591 732.2585135262298 336.7277425498591ZM732.112740929007 346.68192847448915L732.112740929007 346.68192847448915Q722.3876262285839 346.68192847448915 716.5983716531714 353.0542734387921Q710.8091170777591 359.405793746349 709.7262349269624 370.83853029995134L709.7262349269624 370.83853029995134L752.187710032236 370.83853029995134Q752.1044114052518 363.65402372255096 749.9386471036585 358.19796365507585Q747.7937074588115 352.7419035876008 743.3997048853869 349.72232835941804Q739.0057023119623 346.68192847448915 732.112740929007 346.68192847448915ZM775.6154488715852 418.4228709647626L804.665845032378 377.3566478614769L776.9274022465886 338.1854685220852L790.8382729529756 338.1854685220852L811.996124207001 369.06843447653387L833.0706768340422 338.1854685220852L846.8357749432064 338.1854685220852L819.097332157417 377.3566478614769L848.3767995424168 418.4228709647626L834.4659288360299 418.4228709647626L811.996124207001 385.7073352166582L789.3805469807494 418.4228709647626L775.6154488715852 418.4228709647626ZM889.9636390643548 409.92641101235864L889.9636390643548 409.92641101235864Q892.9623896357914 409.92641101235864 896.1069128044505 409.4266192504525Q899.272260629856 408.9060028318003 901.2506030207344 408.17713984568724L901.2506030207344 408.17713984568724L901.2506030207344 417.61070935166515Q899.1264880326335 418.5686435619852 895.3572251615915 419.23503257786Q891.5671376338034 419.88059693698875 887.9852966734763 419.88059693698875L887.9852966734763 419.88059693698875Q881.6129517091733 419.88059693698875 876.4276121793976 417.6523586651573Q871.2214479928755 415.4241203933259 868.1185741377083 410.07218360958126Q864.994875625795 404.7410714825827 864.994875625795 395.2866773198587L864.994875625795 395.2866773198587L864.994875625795 347.7023366550475L853.5829637289389 347.7023366550475L853.5829637289389 341.7673094824124L865.0781742527795 337.0192877443043L869.9094946178718 319.5890500478286L877.2189491357487 319.5890500478286L877.2189491357487 338.1854685220852L900.7299866020821 338.1854685220852L900.7299866020821 347.7023366550475L877.2189491357487 347.7023366550475L877.2189491357487 394.91183349842913Q877.2189491357487 402.47118389725915 880.6966668123455 406.19879745480887Q884.1743844889422 409.92641101235864 889.9636390643548 409.92641101235864ZM919.3264050763389 311.3841352898699L947.2939190863351 311.3841352898699Q968.0144525486928 311.3841352898699 977.5729699951471 319.48492676409813Q987.1106627848555 327.5648935815803 987.1106627848555 342.6419450657481L987.1106627848555 342.6419450657481Q987.1106627848555 349.4516078217189 984.882424513024 355.5740569050688Q982.6541862411927 361.6756813316726 977.6770932788777 366.3404044427963Q972.7000003165626 370.98430289717396 964.5992088423343 373.6498589606732Q956.5192420248522 376.3362396809186 944.7949602768047 376.3362396809186L944.7949602768047 376.3362396809186L931.7795498104995 376.3362396809186L931.7795498104995 418.4228709647626L919.3264050763389 418.4228709647626L919.3264050763389 311.3841352898699ZM946.1277383085542 322.0047102303748L946.1277383085542 322.0047102303748L931.7795498104995 322.0047102303748L931.7795498104995 365.6323661134293L943.4205329315628 365.6323661134293Q953.6662640506381 365.6323661134293 960.4967514633549 363.44577715509007Q967.3480635328178 361.23836354000474 970.7841318959224 356.3029198911819Q974.2410249157731 351.367476242359 974.2410249157731 343.16256148440027L974.2410249157731 343.16256148440027Q974.2410249157731 332.47951257365713 967.4313621598023 327.2316990736429Q960.6216994038316 322.0047102303748 946.1277383085542 322.0047102303748ZM1019.9094971599443 304.5119985636608L1019.9094971599443 418.4228709647626L1007.6854236499905 418.4228709647626L1007.6854236499905 304.5119985636608L1019.9094971599443 304.5119985636608ZM1075.5529799854917 336.8735151470817L1075.5529799854917 336.8735151470817Q1089.9011684835461 336.8735151470817 1096.8566038367396 343.3083340816229Q1103.812039189933 349.7431530161641 1103.812039189933 363.8830949467579L1103.812039189933 363.8830949467579L1103.812039189933 418.4228709647626L1094.9615600728457 418.4228709647626L1092.6083738605378 406.5528166194924L1092.025283471647 406.5528166194924Q1088.672513735527 410.9468191929169 1085.0073741482156 413.9247451076076Q1081.342234560904 416.88184636555206 1076.5525635093038 418.3812216512704Q1071.7420678009573 419.88059693698875 1064.786632447764 419.88059693698875L1064.786632447764 419.88059693698875Q1057.4771779298871 419.88059693698875 1051.7920466382052 417.3191641572199Q1046.127740003269 414.7577313774511 1042.8582688941333 409.57239184767514Q1039.6096224417436 404.3662276611531 1039.6096224417436 396.3903841274014L1039.6096224417436 396.3903841274014Q1039.6096224417436 384.37455718490855 1049.1264905747057 377.9397382503673Q1058.643358707668 371.48409465908003 1078.1144127652603 370.90100427018956L1078.1144127652603 370.90100427018956L1091.9628095014089 370.31791388129915L1091.9628095014089 365.42411954596844Q1091.9628095014089 355.0117911729244 1087.485508301 350.8468598237068Q1083.0290317573372 346.68192847448915 1074.9074156263628 346.68192847448915L1074.9074156263628 346.68192847448915Q1068.5975446322982 346.68192847448915 1062.89158868387 348.5144982681449Q1057.185632735442 350.3262434050546 1052.0627671759044 352.82520221458515L1052.0627671759044 352.82520221458515L1048.3143289616085 343.5998792760681Q1053.7495643723373 340.8093752720923 1060.767473695769 338.8518575379601Q1067.8062076759468 336.8735151470817 1075.5529799854917 336.8735151470817ZM1091.8170369041864 386.29042560554865L1091.8170369041864 378.89767246068743L1079.5929633942326 379.39746422259356Q1064.5783858803031 379.98055461148397 1058.4351121402071 384.31208321467034Q1052.271013743365 388.6227871611105 1052.271013743365 396.536156724624L1052.271013743365 396.536156724624Q1052.271013743365 403.40829345083307 1056.4567697493287 406.698589216715Q1060.6217010985465 410.009709639343 1067.5146624815015 410.009709639343L1067.5146624815015 410.009709639343Q1078.1977113922446 410.009709639343 1085.0073741482156 404.0746824667079Q1091.8170369041864 398.1396552940728 1091.8170369041864 386.29042560554865L1091.8170369041864 386.29042560554865ZM1148.3351553130694 418.5686435619852L1116.1818852971094 338.1854685220852L1129.2181204201604 338.1854685220852L1146.9399033110815 384.7494010063382Q1148.480927910292 388.85185838531754 1149.7928812852954 392.62112125635946Q1151.104834660299 396.3903841274014 1152.1460674976033 399.8264524905059Q1153.1664756781618 403.26252085361045 1153.7495660670522 406.4903426492541L1153.7495660670522 406.4903426492541L1154.2701824857045 406.4903426492541Q1155.2905906662627 402.8252030619426 1157.1856344301568 396.8693512325614Q1159.1015028507968 390.8926747464341 1161.2880918091362 384.6661023793538L1161.2880918091362 384.6661023793538L1178.051940489737 338.1854685220852L1191.1506495830263 338.1854685220852L1156.2277002198368 430.20962668304844Q1153.458020872607 437.60237982790966 1149.7512319718032 443.10008920887697Q1146.0652677277458 448.5769739330981 1140.7966295709855 451.55489984778865Q1135.5279914142252 454.5120011057332 1128.0519396423795 454.5120011057332L1128.0519396423795 454.5120011057332Q1124.615871279275 454.5120011057332 1121.971139872522 454.11633262755754Q1119.3472331225148 453.72066414938183 1117.4313647018746 453.20004773072964L1117.4313647018746 453.20004773072964L1117.4313647018746 443.4541083735604Q1119.0556879280696 443.82895219499005 1121.346400170139 444.1204973894353Q1123.6579370689549 444.41204258388046 1126.1568958784856 444.41204258388046L1126.1568958784856 444.41204258388046Q1130.6758463923866 444.41204258388046 1134.0077914717608 442.6835960739552Q1137.3397365511348 440.9759742207759 1139.755396733681 437.68567845489406Q1142.1710569162271 434.374558032266 1143.9411527396446 429.8347828616188L1143.9411527396446 429.8347828616188L1148.3351553130694 418.5686435619852ZM1234.8616040930654 336.7277425498591L1234.8616040930654 336.7277425498591Q1245.1073352121407 336.7277425498591 1252.4376143867637 341.2675177205063Q1259.7678935613867 345.7864682344074 1263.641279716159 353.9497336788739Q1267.5146658709314 362.11299912334044 1267.5146658709314 373.0251192582906L1267.5146658709314 373.0251192582906L1267.5146658709314 380.56364500037444L1212.100254269591 380.56364500037444Q1212.308500837052 394.70358693096824 1219.1181635930227 402.0963400758295Q1225.9278263489937 409.4890932206908 1238.29767245617 409.4890932206908L1238.29767245617 409.4890932206908Q1245.9194968252382 409.4890932206908 1251.7712253708887 408.0938412187029Q1257.6437785732855 406.698589216715 1263.9328249106043 403.99138383972354L1263.9328249106043 403.99138383972354L1263.9328249106043 414.6952574072128Q1257.8520251407465 417.40246278420426 1251.8961733113654 418.65194218896954Q1245.9194968252382 419.88059693698875 1237.7978806942638 419.88059693698875L1237.7978806942638 419.88059693698875Q1226.2193715434387 419.88059693698875 1217.6187883073044 415.1742245123728Q1209.0182050711699 410.44702743101084 1204.2701833330618 401.2841784627321Q1199.5013369382077 392.1421541511994 1199.5013369382077 378.89767246068743L1199.5013369382077 378.89767246068743Q1199.5013369382077 365.92391130787456 1203.8536901981402 356.44869248840445Q1208.2268681148184 346.9734736689344 1216.1610623350782 341.8506081093967Q1224.0952565553378 336.7277425498591 1234.8616040930654 336.7277425498591ZM1234.7158314958428 346.68192847448915L1234.7158314958428 346.68192847448915Q1224.9907167954195 346.68192847448915 1219.2014622200072 353.0542734387921Q1213.4122076445944 359.405793746349 1212.308500837052 370.83853029995134L1212.308500837052 370.83853029995134L1254.7699759423253 370.83853029995134Q1254.7075019720871 363.65402372255096 1252.541737670494 358.19796365507585Q1250.396798025647 352.7419035876008 1246.0027954522225 349.72232835941804Q1241.6087928787979 346.68192847448915 1234.7158314958428 346.68192847448915ZM1324.6158746687047 336.7277425498591L1324.6158746687047 336.7277425498591Q1327.031534851251 336.7277425498591 1329.6762662580043 336.97763843081214Q1332.3209976647577 337.22753431176517 1334.361814025874 337.664852103433L1334.361814025874 337.664852103433L1332.8207894266634 348.95181605981276Q1330.842447035785 348.43119964116056 1328.426786853239 348.1396544467153Q1326.0111266706926 347.8481092522701 1323.8870116825917 347.8481092522701L1323.8870116825917 347.8481092522701Q1319.0556913174994 347.8481092522701 1314.7866366845512 349.7848023296563Q1310.496757394857 351.7214954070425 1307.2689355992134 355.3449856808618Q1304.0411138035697 358.96847595468114 1302.22936866666 364.07051685747274Q1300.3967988730044 369.1517331035182 1300.3967988730044 375.37830547059855L1300.3967988730044 375.37830547059855L1300.3967988730044 418.4228709647626L1288.1727253630506 418.4228709647626L1288.1727253630506 338.1854685220852L1298.2726838849035 338.1854685220852L1299.584637259907 352.97097481180776L1300.1052536785592 352.97097481180776Q1302.5833878313438 348.5144982681449 1306.1027548214324 344.80770936734126Q1309.6221218115215 341.10092046653756 1314.266020265899 338.9143315081983Q1318.909918720277 336.7277425498591 1324.6158746687047 336.7277425498591Z " fill="#243665" transform="matrix(0.6557441436626128,0,0,0.6557441436626128,0,51.13721928346007)"/></g></svg>